<?xml version="1.0" encoding="UTF-8"?>
<svg width="102.9mm" height="52.9mm" version="1.1" viewBox="0 0 102.9 52.9" xmlns="http://www.w3.org/2000/svg" xmlns:cc="http://creativecommons.org/ns#" xmlns:dc="http://purl.org/dc/elements/1.1/" xmlns:rdf="http://www.w3.org/1999/02/22-rdf-syntax-ns#">
 <metadata>
  <rdf:RDF>
   <cc:Work rdf:about="">
    <dc:format>image/svg+xml</dc:format>
    <dc:type rdf:resource="http://purl.org/dc/dcmitype/StillImage"/>
    <dc:title/>
   </cc:Work>
  </rdf:RDF>
 </metadata>
 <path d="m100.6 52.9h-21.5v-4.988l23.79 4.579zm-25.44-15.65 23.65-4.854-20.15 13.29zm0.6597 15.65h-51v-0.4233c0-14.06 11.44-25.5 25.5-25.5s25.5 11.44 25.5 25.5zm-73.99-20.51 23.65 4.854-3.494 8.435zm19.71 20.51h-21.47l-0.0801-0.8396 21.55-4.149zm11.66-24-6.456 6.456-13.53-19.99zm10.33-4.755-8.435 3.492-4.855-23.65zm6.795-24.15 4.565 23.71h-9.129zm37.11 15.37-13.53 19.99-6.455-6.456zm-17.03-11.38-4.855 23.65-8.435-3.492z" style="fill:#f57c14"/>
</svg>
