<?xml version="1.0" encoding="UTF-8"?>
<svg width="146mm" height="86.35mm" version="1.1" viewBox="0 0 146 86.35" xmlns="http://www.w3.org/2000/svg" xmlns:cc="http://creativecommons.org/ns#" xmlns:dc="http://purl.org/dc/elements/1.1/" xmlns:rdf="http://www.w3.org/1999/02/22-rdf-syntax-ns#">
 <metadata>
  <rdf:RDF>
   <cc:Work rdf:about="">
    <dc:format>image/svg+xml</dc:format>
    <dc:type rdf:resource="http://purl.org/dc/dcmitype/StillImage"/>
    <dc:title/>
   </cc:Work>
  </rdf:RDF>
 </metadata>
 <g transform="translate(-32.85 -120.1)">
  <g transform="matrix(.03819 0 0 -.03819 -158.6 797.9)">
   <path d="m5647 15949c0-12-4.96-19.5-14.86-22.6-4.13-1.3-14.02-1.9-29.69-1.9-16.1 0-24.13 8.2-24.13 24.5v243.7l-202.6-249.9c-10.72-13.2-25.26-19.8-43.62-19.8-18.56 0-33.2 6.6-43.93 19.8l-206.3 251.2v-245c0-16.3-8.05-24.5-24.14-24.5-15.88 0-25.78 0.6-29.7 1.9-9.89 3.1-14.84 10.6-14.84 22.6v316.1c0 23.3 12.78 35 38.35 35 16.72 0 30.12-6 40.22-18l241.3-285.5 235.8 285.9c9.89 11.9 22.89 17.9 38.97 17.9 26.2 0 39.3-12.7 39.3-38.1v-313.3" style="fill:#fff"/>
  </g>
  <g transform="matrix(.0382 0 0 -.0382 -158.6 797.9)">
   <path d="m6068 16075-104.2 153.8-104.8-153.8zm166.7-130.2c0-9.4-3.2-17.4-9.59-23.8s-14.33-9.5-23.8-9.5c-13.21 0-23.93 6.1-32.17 18.5l-60.93 88.5h-289.5l-60.93-88.5c-6.6-9.7-13.72-14.5-21.34-14.5-7.63 0-14.95 2.4-21.96 7.4-7.84 5.4-11.75 11.6-11.75 18.9 0 2.2 0.62 4.3 1.86 6.1l217.1 331.9c8.87 13.6 24.12 20.4 45.77 20.4 16.08 0 26.81-4.5 32.17-13.6 0.41-0.6 0.88-1.5 1.39-2.6 0.51-1.2 1.29-2.6 2.32-4.2l230.1-325.7c0.82-1.4 1.24-4.5 1.24-9.3" style="fill:#fff"/>
  </g>
  <g transform="matrix(.03819 0 0 -.03819 -158.6 797.9)">
   <path d="m6761 15961c0-28.7-12.57-43-37.73-43-11.54 0-24.64 6.1-39.28 18.3l-320.7 272.5v-263.9c0-12.1-4.95-19.8-14.84-22.9-2.9-0.4-6.82-0.7-11.76-1-4.95-0.4-10.93-0.5-17.94-0.5-16.08 0-24.12 8.1-24.12 24.4v314.3c0 27.2 11.76 40.8 35.28 40.8 14.86 0 30.13-6.6 45.81-19.8l316.7-269.4v262.3c0 11.9 4.92 19.5 14.78 22.6 2.87 0.4 6.77 0.7 11.7 1.1 4.92 0.3 10.88 0.4 17.87 0.4 16.21 0 24.31-8 24.31-24.1v-312.1" style="fill:#fff"/>
  </g>
  <g transform="matrix(.03819 0 0 -.03819 -158.6 797.9)">
   <path d="m7238 16268c0-16.3-8.05-24.5-24.13-24.5h-152.5v-296.4c0-16.2-7.98-24.4-23.93-24.4-16.16 0-26.21 0.6-30.15 1.9-9.73 2.9-14.6 10.4-14.6 22.5v296.4h-151.3c-16.28 0-24.43 8.2-24.43 24.5 0 11.1 1.24 18.7 3.71 22.8 3.29 5.8 10.21 8.7 20.72 8.7h372.5c16.08 0 24.13-10.5 24.13-31.5" style="fill:#fff"/>
  </g>
  <g transform="matrix(.03819 0 0 -.03819 -158.6 797.9)">
   <path d="m7757 16029c0-71.5-68.58-107.3-205.7-107.3-4.13 0-9.34 0-15.62 0.1-6.3 0.1-13.57 0.3-21.82 0.5-8.24 0.2-15.47 0.4-21.65 0.5-6.19 0.1-11.35 0.1-15.47 0.1-96.52 0-154.6 18.2-174.2 54.5-6.8 12.5-10.2 29.8-10.2 51.6v246.6c0 16.1 8 24.1 24.02 24.1 15.39 0 25.25-0.6 29.57-1.9 10.05-3 15.08-10.5 15.08-22.2v-241.9c0-24 14.55-39.9 43.62-48 8.66-2.1 18.92-3.6 30.79-4.6 11.85-1.1 25.82-1.6 41.91-1.6h94.66c36.09 0 60.33 2 72.7 5.9 29.08 7.6 43.62 23.6 43.62 48v242.2c0 11.9 4.87 19.4 14.6 22.2 3.94 1.3 13.88 1.9 29.83 1.9 16.16 0 24.25-8 24.25-24.1v-246.6" style="fill:#fff"/>
  </g>
  <g transform="matrix(.03819 0 0 -.03819 -158.6 797.9)">
   <path d="m8248 15948c0-16.2-8.05-24.4-24.13-24.4h-220.3c-50.33 0-89.61 4.6-117.9 13.6-43.52 15.1-65.27 43.6-65.27 85.7v253.4c0 16.1 8.04 24.1 24.13 24.1 15.46 0 25.35-0.6 29.7-1.9 9.89-2.8 14.83-10.3 14.83-22.2v-253.4c0-19.6 15.89-32.5 47.65-38.7 10.1-2.6 33.61-4 70.53-4h216.6c16.08 0 24.13-10.7 24.13-32.2" style="fill:#fff"/>
  </g>
  <g transform="matrix(.0382 0 0 -.0382 -158.6 797.9)">
   <path d="m8666 16075-104.2 153.8-104.8-153.8zm166.7-130.2c0-9.4-3.2-17.4-9.59-23.8-6.38-6.4-14.33-9.5-23.81-9.5-13.19 0-23.92 6.1-32.16 18.5l-60.92 88.5h-289.5l-60.92-88.5c-6.6-9.7-13.72-14.5-21.33-14.5-7.65 0-14.96 2.4-21.97 7.4-7.83 5.4-11.75 11.6-11.75 18.9 0 2.2 0.62 4.3 1.85 6.1l217.1 331.9c8.87 13.6 24.13 20.4 45.77 20.4 16.08 0 26.81-4.5 32.17-13.6 0.41-0.6 0.87-1.5 1.39-2.6 0.51-1.2 1.29-2.6 2.33-4.2l230.1-325.7c0.83-1.4 1.24-4.5 1.24-9.3" style="fill:#fff"/>
  </g>
  <g transform="matrix(.0369 0 0 -.0369 -158.6 797.9)">
   <path d="m6285 16036c-19.05 5.9-34.11 13.5-45.21 23.1l17.03 38.2c10.84-8.6 24.15-15.6 39.9-21 15.77-5.4 31.59-8.1 47.48-8.1 19.67 0 34.35 3.1 44.07 9.5 9.7 6.3 14.56 14.6 14.56 24.9 0 7.6-2.71 13.8-8.13 18.7-5.43 5-12.3 8.8-20.62 11.6s-19.67 5.9-34.04 9.4c-20.18 4.8-36.51 9.6-48.99 14.4-12.49 4.8-23.2 12.3-32.15 22.5-8.96 10.2-13.44 24-13.44 41.4 0 14.7 3.98 28 11.93 40 7.93 11.9 19.91 21.5 35.93 28.5 16.01 7.1 35.62 10.6 58.82 10.6 16.14 0 32.02-2 47.66-6.1 15.63-4 29.14-9.8 40.49-17.3l-15.52-38.3c-11.6 6.9-23.71 12-36.31 15.6-12.62 3.5-24.85 5.3-36.7 5.3-19.42 0-33.85-3.3-43.31-9.9-9.45-6.5-14.18-15.2-14.18-26.1 0-7.5 2.7-13.7 8.13-18.5 5.42-4.8 12.29-8.6 20.61-11.4 8.33-2.7 19.68-5.9 34.05-9.4 19.67-4.6 35.8-9.3 48.41-14.2s23.4-12.4 32.35-22.5c8.94-10.1 13.42-23.7 13.42-40.9 0-14.6-3.97-27.8-11.91-39.7-7.95-11.8-19.98-21.3-36.12-28.4-16.14-7-35.82-10.6-59.01-10.6-20.43 0-40.17 3-59.2 8.7" style="fill:#f57c14"/>
  </g>
  <g transform="matrix(.0369 0 0 -.0369 -158.6 797.9)">
   <path d="m6800 16083c14.12 7.9 25.22 19 33.28 33.3 8.07 14.2 12.12 30.2 12.12 47.8 0 17.7-4.05 33.6-12.12 47.9-8.06 14.2-19.16 25.3-33.28 33.3-14.13 7.9-30.02 11.9-47.66 11.9-17.66 0-33.54-4-47.67-11.9-14.12-8-25.21-19.1-33.28-33.3-8.07-14.3-12.11-30.2-12.11-47.9 0-17.6 4.04-33.6 12.11-47.8 8.07-14.3 19.16-25.4 33.28-33.3 14.13-8 30.01-11.9 47.67-11.9 17.64 0 33.53 3.9 47.66 11.9zm-120.7-37.5c-21.71 11.8-38.72 28-51.07 48.8-12.36 20.8-18.54 44.1-18.54 69.8s6.18 49 18.54 69.8c12.35 20.8 29.36 37.1 51.07 48.8 21.67 11.7 46.01 17.6 73 17.6 26.98 0 51.32-5.9 73.01-17.6 21.68-11.7 38.7-27.9 51.06-48.6 12.35-20.7 18.54-44 18.54-70s-6.19-49.3-18.54-70c-12.36-20.6-29.38-36.8-51.06-48.6-21.69-11.7-46.03-17.6-73.01-17.6-26.99 0-51.33 5.9-73 17.6" style="fill:#f57c14"/>
  </g>
  <g transform="matrix(.03689 0 0 -.03689 -158.6 797.9)">
   <path d="m7078 16300h49.18v-223.2h138.5v-41.7h-187.7v264.9" style="fill:#f57c14"/>
  </g>
  <g transform="matrix(.03689 0 0 -.03689 -158.6 797.9)">
   <path d="m7591 16135-49.95 115.8-49.56-115.8zm16.27-38.6h-132.4l-26.11-61.3h-50.7l119.2 264.9h48.44l119.6-264.9h-51.45l-26.49 61.3" style="fill:#f57c14"/>
  </g>
  <g transform="matrix(.03689 0 0 -.03689 -158.6 797.9)">
   <path d="m8003 16245c-11.11 9-27.37 13.6-48.81 13.6h-57.52v-105.6h57.52c21.44 0 37.7 4.6 48.81 13.8 11.09 9.2 16.64 22.3 16.64 39.2s-5.55 29.9-16.64 39zm17.78-209.7-54.1 77.6c-2.28-0.2-5.68-0.4-10.22-0.4h-59.79v-77.2h-49.18v264.9h109c22.94 0 42.94-3.8 59.96-11.4 17.03-7.5 30.09-18.4 39.17-32.5s13.62-30.9 13.62-50.3c0-19.9-4.86-37.1-14.57-51.5-9.71-14.3-23.64-25.1-41.8-32.1l60.9-87.1h-52.96" style="fill:#f57c14"/>
  </g>
  <g transform="matrix(.04158 0 0 -.04158 -158.6 797.9)">
   <path d="m7370 15240h-431v99.9l476.7-91.8zm-509.9 313.7 473.9 97.2-403.9-266.3zm13.22-313.7h-1022v8.4c0 281.8 229.2 511 511 511s511-229.2 511-511zm-1483 410.9 473.9-97.2-70.01-169.1zm395-410.9h-430.2l-1.61 16.8 431.8 83.1zm233.6 480.9-129.4-129.4-271.2 400.6zm206.9 95.3-169-70-97.29 473.9zm136.2 484 91.47-475.1h-182.9zm743.7-308-271.2-400.7-129.4 129.4zm-341.2 228-97.28-474-169 70 266.3 404" style="fill:#f57c14"/>
  </g>
 </g>
</svg>
