<?xml version="1.0" encoding="UTF-8"?>
<svg width="145.9mm" height="86.41mm" version="1.1" viewBox="0 0 145.9 86.41" xmlns="http://www.w3.org/2000/svg" xmlns:cc="http://creativecommons.org/ns#" xmlns:dc="http://purl.org/dc/elements/1.1/" xmlns:rdf="http://www.w3.org/1999/02/22-rdf-syntax-ns#">
 <metadata>
  <rdf:RDF>
   <cc:Work rdf:about="">
    <dc:format>image/svg+xml</dc:format>
    <dc:type rdf:resource="http://purl.org/dc/dcmitype/StillImage"/>
    <dc:title/>
   </cc:Work>
  </rdf:RDF>
 </metadata>
 <g transform="translate(-21.33 -101.7)">
  <path d="m45.54 170.5c0 0.4586-0.1891 0.7444-0.5673 0.8643-0.1577 0.0459-0.5355 0.0706-1.134 0.0706-0.6145 0-0.9215-0.3104-0.9215-0.9349v-9.306l-7.738 9.543c-0.4096 0.5045-0.9648 0.7585-1.666 0.7585-0.7087 0-1.268-0.254-1.677-0.7585l-7.88-9.592v9.356c0 0.6244-0.3073 0.9349-0.9215 0.9349-0.6064 0-0.9846-0.0247-1.134-0.0706-0.3778-0.1199-0.5669-0.4057-0.5669-0.8643v-12.07c0-0.889 0.4882-1.334 1.465-1.334 0.6378 0 1.15 0.2258 1.536 0.6844l9.215 10.9 9.002-10.91c0.3778-0.4586 0.8742-0.6879 1.488-0.6879 1 0 1.5 0.4868 1.5 1.453v11.97" style="fill:#fff"/>
  <path d="m61.7 165.5-3.979-5.87-4.004 5.87zm6.368 4.974c0 0.3634-0.1235 0.6668-0.3669 0.9102s-0.5468 0.3669-0.9066 0.3669c-0.5045 0-0.9172-0.2364-1.231-0.7091l-2.325-3.38h-11.06l-2.327 3.38c-0.2519 0.3704-0.5239 0.5539-0.8149 0.5539-0.2914 0-0.5711-0.0953-0.8389-0.2822-0.2995-0.2046-0.4487-0.4445-0.4487-0.7232 0-0.0847 0.02365-0.1623 0.07091-0.2364l8.292-12.68c0.3387-0.5186 0.9208-0.7796 1.75-0.7796 0.6138 0 1.023 0.1729 1.228 0.5221 0.01765 0.0212 0.03528 0.0564 0.05292 0.0988 0.02117 0.0423 0.04939 0.0988 0.08819 0.1588l8.791 12.44c0.0317 0.0565 0.0459 0.1764 0.0459 0.3563" style="fill:#fff"/>
  <path d="m88.12 169.9c0 1.097-0.4798 1.644-1.443 1.644-0.441 0-0.9419-0.2328-1.499-0.6985l-12.25-10.41v10.08c0 0.4657-0.1905 0.7585-0.568 0.8749-0.1129 0.0177-0.261 0.0318-0.448 0.0423-0.1905 0.0106-0.4198 0.0176-0.6879 0.0176-0.6138 0-0.9208-0.3104-0.9208-0.9349v-12c0-1.041 0.448-1.559 1.348-1.559 0.568 0 1.15 0.254 1.75 0.755l12.09 10.29v-10.02c0-0.4551 0.1905-0.7444 0.5644-0.8608 0.1129-0.0141 0.261-0.0282 0.448-0.0423 0.187-0.0106 0.4163-0.0177 0.6809-0.0177 0.6209 0 0.9313 0.3069 0.9313 0.9208v11.92" style="fill:#fff"/>
  <path d="m106.3 158.2c0 0.6209-0.3069 0.9313-0.9208 0.9313h-5.824v11.32c0 0.6244-0.3034 0.9349-0.9137 0.9349-0.6174 0-1.002-0.0247-1.15-0.0706-0.374-0.1094-0.5574-0.3986-0.5574-0.8643v-11.32h-5.778c-0.6209 0-0.9313-0.3104-0.9313-0.9313 0-0.4269 0.0459-0.7161 0.1411-0.8749 0.1235-0.2187 0.3881-0.3316 0.7902-0.3316h14.22c0.6138 0 0.9208 0.4022 0.9208 1.206" style="fill:#fff"/>
  <path d="m126.1 167.4c0 2.734-2.618 4.099-7.856 4.099-0.1552 0-0.3563 0-0.5962-4e-3 -0.2399-7e-3 -0.5186-0.0106-0.8326-0.0176-0.314-0.0106-0.5891-0.0141-0.8255-0.0177-0.2364-7e-3 -0.4339-7e-3 -0.5927-7e-3 -3.683 0-5.902-0.695-6.65-2.078-0.2611-0.4833-0.3881-1.139-0.3881-1.976v-9.416c0-0.6138 0.3034-0.9208 0.9172-0.9208 0.5856 0 0.9631 0.0247 1.129 0.0705 0.381 0.12 0.575 0.4022 0.575 0.8502v9.239c0 0.9137 0.5539 1.524 1.665 1.831 0.3316 0.0776 0.7232 0.1376 1.175 0.1764 0.4551 0.0423 0.9878 0.06 1.602 0.06h3.616c1.376 0 2.304-0.0741 2.776-0.2258 1.108-0.2893 1.665-0.8996 1.665-1.831v-9.25c0-0.4551 0.1834-0.7373 0.5574-0.8502 0.1482-0.0459 0.5292-0.0705 1.139-0.0705 0.6174 0 0.9243 0.3069 0.9243 0.9208v9.416" style="fill:#fff"/>
  <path d="m144.9 170.5c0 0.6244-0.3069 0.9349-0.9208 0.9349h-8.41c-1.923 0-3.422-0.1729-4.501-0.5186-1.662-0.575-2.494-1.669-2.494-3.274v-9.677c0-0.6138 0.3069-0.9208 0.9243-0.9208 0.5891 0 0.9666 0.0247 1.132 0.0705 0.3775 0.1129 0.568 0.3951 0.568 0.8502v9.677c0 0.7479 0.6068 1.242 1.817 1.478 0.3881 0.1023 1.284 0.1517 2.695 0.1517h8.269c0.6138 0 0.9208 0.4092 0.9208 1.228" style="fill:#fff"/>
  <path d="m160.9 165.5-3.983-5.87-4.004 5.87zm6.368 4.974c0 0.3634-0.1235 0.6668-0.3669 0.9102s-0.5468 0.3669-0.9102 0.3669c-0.5045 0-0.9137-0.2364-1.228-0.7091l-2.328-3.38h-11.06l-2.328 3.38c-0.2505 0.3704-0.5221 0.5539-0.8149 0.5539s-0.5715-0.0953-0.8396-0.2822c-0.2999-0.2046-0.448-0.4445-0.448-0.7232 0-0.0847 0.0247-0.1623 0.0706-0.2364l8.294-12.68c0.3387-0.5186 0.9208-0.7796 1.746-0.7796 0.6174 0 1.027 0.1729 1.231 0.5221 0.0141 0.0212 0.0317 0.0564 0.0529 0.0988 0.0176 0.0423 0.0494 0.0988 0.0882 0.1588l8.788 12.44c0.0317 0.0565 0.0494 0.1764 0.0494 0.3563" style="fill:#fff"/>
  <path d="m61.84 187.8c-0.702-0.2117-1.259-0.4974-1.669-0.8502l0.6279-1.411c0.4022 0.3175 0.8925 0.575 1.475 0.7761 0.5821 0.2011 1.164 0.2999 1.75 0.2999 0.7267 0 1.27-0.1164 1.626-0.3492 0.3598-0.2328 0.5398-0.5398 0.5398-0.9208 0-0.2787-0.1023-0.508-0.2999-0.6914-0.2011-0.1799-0.4551-0.321-0.762-0.4233s-0.7267-0.2187-1.256-0.3492c-0.7444-0.1764-1.348-0.3563-1.81-0.5327-0.4586-0.1764-0.8537-0.4516-1.185-0.829-0.3281-0.3775-0.4939-0.8855-0.4939-1.528 0-0.5398 0.1446-1.034 0.4374-1.475s0.7373-0.7938 1.326-1.055c0.5927-0.2575 1.316-0.3881 2.17-0.3881 0.5962 0 1.182 0.0741 1.76 0.2222 0.5786 0.1482 1.076 0.3634 1.492 0.6421l-0.5715 1.411c-0.4269-0.254-0.8749-0.4445-1.341-0.575s-0.9172-0.194-1.351-0.194c-0.7197 0-1.252 0.12-1.598 0.3634-0.3492 0.2399-0.5256 0.5609-0.5256 0.9631 0 0.2787 0.09878 0.508 0.2999 0.6844 0.2011 0.1764 0.4551 0.314 0.762 0.4163 0.3069 0.1058 0.7267 0.2187 1.256 0.3492 0.7267 0.1693 1.319 0.3422 1.785 0.5256 0.4657 0.1799 0.8643 0.4586 1.196 0.829 0.3281 0.374 0.4939 0.8749 0.4939 1.506 0 0.5398-0.1446 1.03-0.441 1.468-0.2928 0.4374-0.7373 0.7867-1.33 1.048-0.5962 0.2575-1.323 0.388-2.18 0.388-0.7514 0-1.482-0.1058-2.184-0.321" style="fill:#fff"/>
  <path d="m80.84 186c0.5221-0.2928 0.9313-0.702 1.228-1.228 0.2999-0.5256 0.448-1.115 0.448-1.767s-0.1482-1.238-0.448-1.764c-0.2963-0.5256-0.7056-0.9384-1.228-1.231-0.5221-0.2928-1.108-0.4374-1.76-0.4374-0.6491 0-1.235 0.1446-1.757 0.4374-0.5221 0.2928-0.9313 0.7056-1.228 1.231-0.2999 0.5256-0.448 1.111-0.448 1.764s0.1482 1.242 0.448 1.767c0.2963 0.5256 0.7056 0.9349 1.228 1.228 0.5221 0.2928 1.108 0.4374 1.757 0.4374 0.6526 0 1.238-0.1446 1.76-0.4374zm-4.452 1.379c-0.8008-0.4304-1.429-1.03-1.884-1.799-0.4586-0.7691-0.6844-1.626-0.6844-2.575s0.2258-1.806 0.6844-2.575c0.4551-0.7691 1.083-1.369 1.884-1.799 0.8008-0.4339 1.697-0.6491 2.692-0.6491 0.9984 0 1.894 0.2152 2.695 0.6491 0.8008 0.4304 1.429 1.03 1.884 1.792s0.6844 1.623 0.6844 2.582c0 0.9596-0.2293 1.82-0.6844 2.582s-1.083 1.362-1.884 1.792c-0.8008 0.4339-1.697 0.6491-2.695 0.6491-0.9948 0-1.891-0.2152-2.692-0.6491" style="fill:#fff"/>
  <path d="m91.02 178.2h1.817v8.237h5.108v1.535h-6.925v-9.772" style="fill:#fff"/>
  <path d="m109.9 184.3-1.842-4.269-1.827 4.269zm0.6032 1.425h-4.886l-0.9631 2.261h-1.87l4.396-9.772h1.785l4.413 9.772h-1.901l-0.9737-2.261" style="fill:#fff"/>
  <path d="m125.1 180.2c-0.4092-0.3351-1.009-0.5045-1.799-0.5045h-2.124v3.895h2.124c0.7902 0 1.39-0.1693 1.799-0.508 0.4092-0.3387 0.6138-0.822 0.6138-1.446 0-0.6209-0.2046-1.101-0.6138-1.436zm0.6562 7.733-1.997-2.861c-0.0847 7e-3 -0.2081 0.0141-0.3775 0.0141h-2.205v2.847h-1.813v-9.772h4.018c0.8467 0 1.584 0.1411 2.212 0.4198 0.6315 0.2787 1.111 0.6809 1.446 1.199 0.3351 0.5221 0.5009 1.139 0.5009 1.856 0 0.7373-0.1764 1.369-0.5362 1.901-0.3598 0.5292-0.8714 0.9243-1.542 1.185l2.247 3.21h-1.954" style="fill:#fff"/>
  <path d="m136.4 145.8h-17.92v-4.156l19.82 3.817zm-21.2-13.05 19.71-4.043-16.8 11.07zm0.5468 13.05h-42.5v-0.3528c0-11.72 9.532-21.25 21.25-21.25 11.72 0 21.25 9.532 21.25 21.25zm-61.65-17.09 19.71 4.043-2.91 7.031zm16.43 17.09h-17.89l-0.0635-0.6985 17.95-3.457zm9.716-20-5.38 5.38-11.28-16.66zm8.604-3.965-7.031 2.91-4.043-19.71zm5.662-20.12 3.803 19.75h-7.606zm30.92 12.81-11.28 16.66-5.38-5.38zm-14.19-9.483-4.043 19.71-7.031-2.91z" style="fill:#fff"/>
 </g>
</svg>
