<?xml version="1.0" encoding="UTF-8" standalone="no"?>
<svg
   width="146mm"
   height="86.41mm"
   version="1.1"
   viewBox="0 0 146 86.41"
   id="svg32"
   sodipodi:docname="multicolor grey.svg"
   inkscape:version="1.2-dev (9ee32be, 2021-06-19)"
   xmlns:inkscape="http://www.inkscape.org/namespaces/inkscape"
   xmlns:sodipodi="http://sodipodi.sourceforge.net/DTD/sodipodi-0.dtd"
   xmlns="http://www.w3.org/2000/svg"
   xmlns:svg="http://www.w3.org/2000/svg"
   xmlns:rdf="http://www.w3.org/1999/02/22-rdf-syntax-ns#"
   xmlns:cc="http://creativecommons.org/ns#"
   xmlns:dc="http://purl.org/dc/elements/1.1/">
  <defs
     id="defs36" />
  <sodipodi:namedview
     id="namedview34"
     pagecolor="#ffffff"
     bordercolor="#666666"
     borderopacity="1.0"
     inkscape:pageshadow="2"
     inkscape:pageopacity="0.0"
     inkscape:pagecheckerboard="0"
     inkscape:document-units="mm"
     showgrid="false"
     inkscape:zoom="1.8555433"
     inkscape:cx="275.92997"
     inkscape:cy="163.2945"
     inkscape:window-width="1440"
     inkscape:window-height="900"
     inkscape:window-x="0"
     inkscape:window-y="0"
     inkscape:window-maximized="0"
     inkscape:current-layer="g30" />
  <metadata
     id="metadata2">
    <rdf:RDF>
      <cc:Work
         rdf:about="">
        <dc:format>image/svg+xml</dc:format>
        <dc:type
           rdf:resource="http://purl.org/dc/dcmitype/StillImage" />
        <dc:title />
      </cc:Work>
    </rdf:RDF>
  </metadata>
  <g
     transform="translate(-35.11 -193.4)"
     id="g30">
    <path
       d="m59.32 262.2c0 0.4586-0.1891 0.7444-0.5669 0.8643-0.158 0.0459-0.5359 0.0706-1.134 0.0706-0.6142 0-0.9214-0.3104-0.9214-0.9349v-9.306l-7.738 9.543c-0.4096 0.5045-0.9645 0.7585-1.665 0.7585-0.7087 0-1.268-0.254-1.677-0.7585l-7.88-9.592v9.356c0 0.6244-0.3069 0.9349-0.9215 0.9349-0.6064 0-0.9842-0.0247-1.134-0.0706-0.3782-0.12-0.5673-0.4057-0.5673-0.8643v-12.07c0-0.889 0.4886-1.334 1.465-1.334 0.6378 0 1.15 0.2258 1.536 0.6844l9.214 10.9 9.002-10.91c0.3782-0.4586 0.8742-0.6879 1.488-0.6879 1 0 1.5 0.4868 1.5 1.453v11.97"
       style="fill:#343a40;fill-opacity:1"
       id="path4" />
    <path
       d="m75.48 257.2-3.981-5.87-4.005 5.87zm6.367 4.974c0 0.3634-0.1224 0.6668-0.3665 0.9102s-0.5472 0.3669-0.9095 0.3669c-0.5041 0-0.9137-0.2364-1.228-0.7091l-2.327-3.38h-11.06l-2.327 3.38c-0.2522 0.3704-0.5242 0.5539-0.8153 0.5539-0.2914 0-0.5712-0.0952-0.8389-0.2822-0.2992-0.2046-0.4487-0.4445-0.4487-0.7232 0-0.0847 0.0236-0.1623 0.0709-0.2364l8.293-12.68c0.3387-0.5186 0.9215-0.7796 1.749-0.7796 0.6142 0 1.023 0.1729 1.228 0.5221 0.0155 0.0212 0.0335 0.0564 0.0533 0.0988 0.01979 0.0423 0.049 0.0988 0.0885 0.1588l8.789 12.44c0.0314 0.0564 0.0473 0.1764 0.0473 0.3563"
       style="fill:#343a40;fill-opacity:1"
       id="path6" />
    <path
       d="m101.9 261.6c0 1.097-0.4805 1.644-1.441 1.644-0.441 0-0.9412-0.2328-1.5-0.6985l-12.25-10.41v10.08c0 0.4657-0.1894 0.7585-0.5673 0.8749-0.1104 0.0177-0.26 0.0317-0.4487 0.0423-0.1891 0.0106-0.4177 0.0177-0.6854 0.0177-0.6142 0-0.9215-0.3104-0.9215-0.9349v-12c0-1.041 0.4491-1.559 1.348-1.559 0.5673 0 1.15 0.254 1.749 0.755l12.09 10.29v-10.02c0-0.4551 0.1884-0.7444 0.5648-0.8608 0.1097-0.0141 0.2586-0.0282 0.447-0.0423 0.188-0.0106 0.4152-0.0177 0.6819-0.0177 0.6195 0 0.9292 0.3069 0.9292 0.9208v11.92"
       style="fill:#343a40;fill-opacity:1"
       id="path8" />
    <path
       d="m120.1 250c0 0.6209-0.3069 0.9313-0.9211 0.9313h-5.824v11.32c0 0.6244-0.3048 0.9349-0.914 0.9349-0.617 0-1.001-0.0247-1.151-0.0706-0.3722-0.1094-0.5577-0.3986-0.5577-0.8643v-11.32h-5.777c-0.6223 0-0.9334-0.3104-0.9334-0.9313 0-0.4269 0.0473-0.7161 0.1418-0.8749 0.1259-0.2187 0.3898-0.3316 0.7916-0.3316h14.22c0.6142 0 0.9211 0.4022 0.9211 1.206"
       style="fill:#343a40;fill-opacity:1"
       id="path10" />
    <path
       d="m139.9 259.1c0 2.734-2.619 4.099-7.856 4.099-0.1577 0-0.3563 0-0.5965-4e-3 -0.2406-7e-3 -0.5179-0.0106-0.8329-0.0177-0.315-0.0106-0.5906-0.0141-0.8269-0.0177-0.2364-7e-3 -0.4332-7e-3 -0.5906-7e-3 -3.686 0-5.903-0.695-6.651-2.078-0.26-0.4833-0.3898-1.139-0.3898-1.976v-9.416c0-0.6138 0.3055-0.9208 0.9172-0.9208 0.5881 0 0.9645 0.0247 1.129 0.0705 0.3842 0.1199 0.5764 0.4022 0.5764 0.8502v9.239c0 0.9137 0.5553 1.524 1.665 1.831 0.3309 0.0776 0.7225 0.1376 1.175 0.1764 0.453 0.0423 0.9864 0.06 1.601 0.06h3.615c1.378 0 2.303-0.0741 2.776-0.2258 1.11-0.2893 1.665-0.8996 1.665-1.831v-9.25c0-0.4551 0.1859-0.7373 0.5577-0.8502 0.1503-0.0459 0.5299-0.0705 1.139-0.0705 0.617 0 0.9257 0.3069 0.9257 0.9208v9.416"
       style="fill:#343a40;fill-opacity:1"
       id="path12" />
    <path
       d="m158.7 262.2c0 0.6244-0.3076 0.9349-0.9218 0.9349h-8.411c-1.922 0-3.422-0.1729-4.501-0.5186-1.662-0.575-2.493-1.669-2.493-3.274v-9.677c0-0.6138 0.3073-0.9208 0.9215-0.9208 0.5906 0 0.9687 0.0247 1.134 0.0705 0.3782 0.1129 0.5669 0.3951 0.5669 0.8502v9.677c0 0.7479 0.6064 1.242 1.819 1.478 0.3859 0.1023 1.284 0.1517 2.693 0.1517h8.269c0.6142 0 0.9218 0.4092 0.9218 1.228"
       style="fill:#343a40;fill-opacity:1"
       id="path14" />
    <path
       d="m174.7 257.2-3.981-5.87-4.004 5.87zm6.367 4.974c0 0.3634-0.1221 0.6668-0.3662 0.9102s-0.5475 0.3669-0.9095 0.3669c-0.5041 0-0.9137-0.2364-1.228-0.7091l-2.327-3.38h-11.06l-2.327 3.38c-0.2522 0.3704-0.5239 0.5539-0.8153 0.5539s-0.5711-0.0952-0.8386-0.2822c-0.2995-0.2046-0.4491-0.4445-0.4491-0.7232 0-0.0847 0.0237-0.1623 0.0709-0.2364l8.293-12.68c0.3383-0.5186 0.9211-0.7796 1.748-0.7796 0.6142 0 1.023 0.1729 1.228 0.5221 0.0155 0.0212 0.0335 0.0564 0.0529 0.0988 0.0198 0.0423 0.0494 0.0988 0.0889 0.1588l8.789 12.44c0.031 0.0564 0.0469 0.1764 0.0469 0.3563"
       style="fill:#343a40;fill-opacity:1"
       id="path16" />
    <path
       d="m75.62 279.5c-0.7024-0.2117-1.258-0.4974-1.668-0.8502l0.6283-1.411c0.4 0.3175 0.8908 0.575 1.472 0.7761 0.5814 0.2011 1.166 0.2999 1.752 0.2999 0.7257 0 1.268-0.1164 1.626-0.3492 0.3581-0.2328 0.5373-0.5398 0.5373-0.9208 0-0.2787-0.1002-0.508-0.3002-0.6914-0.2-0.1799-0.4533-0.321-0.7606-0.4233s-0.726-0.2187-1.256-0.3492c-0.7444-0.1764-1.347-0.3563-1.808-0.5327-0.4607-0.1764-0.8562-0.4516-1.186-0.829s-0.4956-0.8855-0.4956-1.528c0-0.5398 0.1471-1.034 0.4399-1.475 0.2932-0.441 0.7352-0.7938 1.326-1.055 0.5906-0.2575 1.314-0.388 2.17-0.388 0.5955 0 1.181 0.0741 1.759 0.2222 0.5772 0.1482 1.075 0.3634 1.494 0.642l-0.5726 1.411c-0.4276-0.254-0.8745-0.4445-1.339-0.575-0.4657-0.1305-0.9169-0.194-1.354-0.194-0.7169 0-1.249 0.1199-1.598 0.3634-0.3489 0.2399-0.5232 0.5609-0.5232 0.9631 0 0.2787 0.0998 0.508 0.3002 0.6844 0.1997 0.1764 0.4533 0.314 0.7606 0.4163 0.3069 0.1058 0.7257 0.2187 1.256 0.3492 0.726 0.1693 1.321 0.3422 1.787 0.5256 0.465 0.1799 0.8629 0.4586 1.193 0.829 0.3302 0.3739 0.4953 0.8749 0.4953 1.506 0 0.5398-0.1464 1.03-0.4396 1.468-0.2932 0.4374-0.7377 0.7867-1.333 1.048-0.5955 0.2575-1.321 0.3881-2.177 0.3881-0.7539 0-1.482-0.1058-2.185-0.321"
       style="fill:#f57c14"
       id="path18" />
    <path
       d="m94.63 277.8c0.5211-0.2928 0.9306-0.702 1.228-1.228 0.2978-0.5256 0.4466-1.115 0.4466-1.767 0-0.6526-0.1489-1.238-0.4466-1.764-0.2977-0.5256-0.7073-0.9384-1.228-1.231-0.521-0.2928-1.107-0.4374-1.759-0.4374-0.6516 0-1.238 0.1446-1.759 0.4374-0.5214 0.2928-0.9306 0.7056-1.228 1.231-0.2977 0.5256-0.4466 1.111-0.4466 1.764 0 0.6526 0.1489 1.242 0.4466 1.767 0.2978 0.5256 0.707 0.9349 1.228 1.228 0.521 0.2928 1.107 0.4374 1.759 0.4374 0.6512 0 1.238-0.1446 1.759-0.4374zm-4.452 1.379c-0.8005-0.4304-1.429-1.03-1.884-1.799-0.4561-0.769-0.684-1.626-0.684-2.575s0.2279-1.806 0.684-2.575c0.4554-0.7691 1.084-1.369 1.884-1.799 0.8001-0.4339 1.698-0.6491 2.694-0.6491 0.9955 0 1.893 0.2152 2.694 0.6491 0.8001 0.4304 1.428 1.03 1.885 1.792 0.4558 0.762 0.6837 1.623 0.6837 2.582 0 0.9596-0.2279 1.82-0.6837 2.582-0.4561 0.762-1.084 1.362-1.885 1.792-0.8005 0.4339-1.698 0.6491-2.694 0.6491-0.9959 0-1.894-0.2152-2.694-0.6491"
       style="fill:#f57c14"
       id="path20" />
    <path
       d="m104.8 269.9h1.815v8.237h5.109v1.535h-6.923v-9.772"
       style="fill:#f57c14"
       id="path22" />
    <path
       d="m123.7 276-1.843-4.269-1.828 4.269zm0.6004 1.425h-4.885l-0.9631 2.261h-1.87l4.397-9.772h1.786l4.411 9.772h-1.898l-0.9768-2.261"
       style="fill:#f57c14"
       id="path24" />
    <path
       d="m138.9 271.9c-0.4096-0.3351-1.01-0.5045-1.801-0.5045h-2.122v3.895h2.122c0.7909 0 1.391-0.1693 1.801-0.508 0.4096-0.3387 0.6145-0.822 0.6145-1.446 0-0.6209-0.205-1.101-0.6145-1.436zm0.6562 7.733-1.996-2.861c-0.0836 7e-3 -0.2092 0.0141-0.3768 0.0141h-2.206v2.847h-1.814v-9.772h4.02c0.8467 0 1.584 0.1411 2.212 0.4198 0.6279 0.2787 1.109 0.6809 1.445 1.199 0.3351 0.5221 0.5024 1.139 0.5024 1.856 0 0.7373-0.1792 1.369-0.5373 1.901-0.3584 0.5292-0.8724 0.9243-1.542 1.185l2.247 3.21h-1.954"
       style="fill:#f57c14"
       id="path26" />
    <path
       d="m150.2 237.5h-17.92v-4.156l19.82 3.817zm-21.2-13.05 19.71-4.043-16.8 11.07zm0.55 13.05h-42.5v-0.3528c0-11.72 9.532-21.25 21.25-21.25 11.72 0 21.25 9.532 21.25 21.25zm-61.66-17.09 19.71 4.043-2.911 7.031zm16.43 17.09h-17.89l-0.0663-0.6985 17.96-3.457zm9.713-20-5.38 5.38-11.28-16.66zm8.605-3.965-7.029 2.91-4.046-19.71zm5.663-20.12 3.804 19.75h-7.608zm30.93 12.81-11.28 16.66-5.38-5.38zm-14.19-9.483-4.045 19.71-7.029-2.91z"
       style="fill:#f57c14"
       id="path28" />
  </g>
</svg>
